<?xml version="1.0" encoding="utf-8"?>
<!-- Generator: Adobe Illustrator 25.4.1, SVG Export Plug-In . SVG Version: 6.00 Build 0)  -->
<svg version="1.1" id="Camada_1" xmlns="http://www.w3.org/2000/svg" xmlns:xlink="http://www.w3.org/1999/xlink" x="0px" y="0px"
	 viewBox="0 0 500 500" style="enable-background:new 0 0 500 500;" xml:space="preserve">
<style type="text/css">
	.st0{fill:#171846;}
	.st1{fill:#931813;}
	.st2{fill:#706F6F;}
</style>
<polygon class="st0" points="192.31,75.48 192.31,49.63 140.62,49.63 140.62,88.4 76.01,88.4 76.01,127.16 24.32,127.16 
	24.32,230.54 101.85,230.54 101.85,282.23 179.38,282.23 179.38,320.99 192.31,320.99 256.92,75.48 "/>
<polygon class="st1" points="463.67,153 424.9,153 424.9,127.16 399,127.16 399,114.24 334.45,114.24 269.84,398.52 269.84,488.98 
	334.45,488.98 334.45,398.53 360.41,398.53 360.41,359.76 399,359.76 399,320.99 424.9,320.99 424.9,282.23 424.9,269.31 
	437.82,269.31 437.82,256.38 463.67,256.38 463.74,204.7 476.59,204.7 476.59,165.92 463.67,165.92 "/>
<polygon class="st2" points="269.84,10.86 256.92,75.48 282.76,75.48 282.76,49.63 308.6,49.63 308.6,88.4 321.53,88.4 
	321.53,114.24 334.45,114.24 360.29,10.86 "/>
</svg>
